<svg xmlns="http://www.w3.org/2000/svg" viewBox="0 0 700 700">
  <defs>
    <linearGradient id="bg" x1="0" y1="0" x2="1" y2="1">
      <stop offset="0%" stop-color="#FDF3F5"/><stop offset="100%" stop-color="#ECE4F8"/>
    </linearGradient>
  </defs>
  <rect width="700" height="700" fill="url(#bg)"/>
  <!-- gift packaging -->
  <g transform="translate(350,400)">
    <rect x="-140" y="-90" width="280" height="180" rx="10" fill="#FFFFFF" opacity="0.85"/>
    <rect x="-140" y="-90" width="280" height="40" fill="#F3E4B8" opacity="0.7"/>
    <rect x="-14" y="-90" width="28" height="180" fill="#C96585" opacity="0.6"/>
    <circle cx="0" cy="-90" r="26" fill="#C96585" opacity="0.7"/>
    <path d="M-20 -90 q20 -40 40 0" fill="none" stroke="#C96585" stroke-width="6" opacity="0.7"/>
  </g>
  <g transform="translate(200,540) rotate(-10) scale(0.5)">
    <ellipse cx="0" cy="-28" rx="14" ry="26" fill="#8C67B8" opacity="0.6"/>
    <ellipse cx="24" cy="-10" rx="14" ry="26" fill="#8C67B8" opacity="0.55" transform="rotate(72)"/>
    <ellipse cx="15" cy="22" rx="14" ry="26" fill="#8C67B8" opacity="0.5" transform="rotate(144)"/>
    <ellipse cx="-15" cy="22" rx="14" ry="26" fill="#8C67B8" opacity="0.5" transform="rotate(216)"/>
    <ellipse cx="-24" cy="-10" rx="14" ry="26" fill="#8C67B8" opacity="0.55" transform="rotate(288)"/>
    <circle cx="0" cy="0" r="10" fill="#DBB758"/>
  </g>
</svg>
