<svg xmlns="http://www.w3.org/2000/svg" viewBox="0 0 700 700">
  <defs>
    <linearGradient id="bg" x1="0" y1="0" x2="1" y2="1">
      <stop offset="0%" stop-color="#ECE4F8"/><stop offset="100%" stop-color="#FDF3F5"/>
    </linearGradient>
  </defs>
  <rect width="700" height="700" fill="url(#bg)"/>
  <!-- glitter jars -->
  <g transform="translate(220,420)">
    <rect x="-45" y="-100" width="90" height="140" rx="14" fill="#FFFFFF" opacity="0.7"/>
    <rect x="-45" y="-30" width="90" height="70" rx="10" fill="#EAAABB" opacity="0.7"/>
    <rect x="-30" y="-130" width="60" height="30" rx="8" fill="#C9A03D"/>
  </g>
  <g transform="translate(400,440)">
    <rect x="-50" y="-120" width="100" height="160" rx="16" fill="#FFFFFF" opacity="0.7"/>
    <rect x="-50" y="-30" width="100" height="70" rx="10" fill="#8C67B8" opacity="0.55"/>
    <rect x="-34" y="-150" width="68" height="30" rx="8" fill="#C9A03D"/>
    <circle cx="-20" cy="0" r="4" fill="#F3E4B8"/>
    <circle cx="10" cy="10" r="3" fill="#F3E4B8"/>
    <circle cx="20" cy="-10" r="3" fill="#F3E4B8"/>
  </g>
  <g transform="translate(560,400)">
    <rect x="-40" y="-90" width="80" height="120" rx="12" fill="#FFFFFF" opacity="0.7"/>
    <rect x="-40" y="-20" width="80" height="50" rx="8" fill="#DBB758" opacity="0.6"/>
    <rect x="-26" y="-116" width="52" height="26" rx="6" fill="#C9A03D"/>
  </g>
</svg>
