<svg xmlns="http://www.w3.org/2000/svg" viewBox="0 0 700 700">
  <defs>
    <linearGradient id="bg" x1="0" y1="0" x2="1" y2="1">
      <stop offset="0%" stop-color="#FDF3F5"/><stop offset="100%" stop-color="#F3E4B8"/>
    </linearGradient>
  </defs>
  <rect width="700" height="700" fill="url(#bg)"/>
  <!-- flatlay: resin pour in progress -->
  <ellipse cx="350" cy="380" rx="220" ry="150" fill="#FFFFFF" opacity="0.6"/>
  <ellipse cx="350" cy="380" rx="150" ry="95" fill="#F9E2E7" opacity="0.8"/>
  <ellipse cx="300" cy="340" rx="60" ry="30" fill="#FFFFFF" opacity="0.6"/>
  <g transform="translate(520,220) rotate(20)">
    <rect x="-14" y="0" width="28" height="120" rx="10" fill="#DBCBF0"/>
    <rect x="-18" y="-30" width="36" height="34" rx="6" fill="#8C67B8"/>
  </g>
  <g transform="translate(150,520) rotate(-8) scale(0.8)">
    <ellipse cx="0" cy="-28" rx="14" ry="26" fill="#C96585" opacity="0.75"/>
    <ellipse cx="24" cy="-10" rx="14" ry="26" fill="#C96585" opacity="0.7" transform="rotate(72)"/>
    <ellipse cx="15" cy="22" rx="14" ry="26" fill="#C96585" opacity="0.65" transform="rotate(144)"/>
    <ellipse cx="-15" cy="22" rx="14" ry="26" fill="#C96585" opacity="0.65" transform="rotate(216)"/>
    <ellipse cx="-24" cy="-10" rx="14" ry="26" fill="#C96585" opacity="0.7" transform="rotate(288)"/>
    <circle cx="0" cy="0" r="10" fill="#DBB758"/>
  </g>
</svg>
