<svg xmlns="http://www.w3.org/2000/svg" viewBox="0 0 640 800">
  <defs>
    <linearGradient id="bg" x1="0" y1="0" x2="1" y2="1">
      <stop offset="0%" stop-color="#FDF3F5"/>
      <stop offset="100%" stop-color="#ECE4F8"/>
    </linearGradient>
    <radialGradient id="puck" cx="35%" cy="30%" r="80%">
      <stop offset="0%" stop-color="#FFFFFF" stop-opacity="0.95"/>
      <stop offset="100%" stop-color="#F3E4B8" stop-opacity="0.6"/>
    </radialGradient>
  </defs>
  <rect width="640" height="800" fill="url(#bg)"/>
  <g transform="translate(240,430)">
    <circle r="160" fill="url(#puck)" stroke="#DBB758" stroke-width="3"/>
    <path d="M0 -42 C 34 -84 100 -60 100 -8 C 100 50 34 84 0 118 C -34 84 -100 50 -100 -8 C -100 -60 -34 -84 0 -42 Z"
          fill="#C96585" opacity="0.55" transform="scale(0.5)"/>
  </g>
  <g transform="translate(400,430)">
    <circle r="160" fill="url(#puck)" stroke="#C3ACE3" stroke-width="3" opacity="0.95"/>
    <path d="M0 -42 C 34 -84 100 -60 100 -8 C 100 50 34 84 0 118 C -34 84 -100 50 -100 -8 C -100 -60 -34 -84 0 -42 Z"
          fill="#8C67B8" opacity="0.5" transform="scale(0.5)"/>
  </g>
  <circle cx="240" cy="270" r="24" fill="none" stroke="#C9A03D" stroke-width="7"/>
  <rect x="231" y="292" width="18" height="30" rx="7" fill="#C9A03D"/>
  <circle cx="400" cy="270" r="24" fill="none" stroke="#C9A03D" stroke-width="7"/>
  <rect x="391" y="292" width="18" height="30" rx="7" fill="#C9A03D"/>
</svg>
